# AST/ASF file generated using VICON BodyLanguage
# -----------------------------------------------
:version 1.10
:name VICON
:units
  mass 1.0
  length 0.45
  angle deg
:documentation
   .ast/.asf automatically generated from VICON data using
   VICON BodyBuilder and BodyLanguage model FoxedUp or BRILLIANT.MOD
:root
   order TX TY TZ RX RY RZ
   axis XYZ
   position 0 0 0  
   orientation 0 0 0 
:bonedata
  begin
     id 1 
     name lhipjoint
     direction 0.577973 -0.728611 0.367523 
     length 2.48544 
     axis 0 0 0  XYZ
  end
  begin
     id 2 
     name lfemur
     direction 0.34202 -0.939693 0  
     length 7.1921  
     axis 0 0 20  XYZ
    dof rx ry rz
    limits (-160.0 20.0)
           (-70.0 70.0)
           (-60.0 70.0)
  end
  begin
     id 3 
     name ltibia
     direction 0.34202 -0.939693 0   
     length 7.71059   
     axis 0 0 20   XYZ
    dof rx
    limits (-10.0 170.0)
  end
  begin
     id 4 
     name lfoot
     direction 0.089538 -0.246004 0.965124   
     length 2.19909   
     axis -90 7.62852e-016 20   XYZ
    dof rx rz
    limits (-45.0 90.0)
           (-70.0 20.0)
  end
  begin
     id 5 
     name ltoes
     direction 1.53544e-011 -4.21829e-011 1   
     length 1.10116   
     axis -90 7.62852e-016 20   XYZ
    dof rx
    limits (-90.0 20.0)
  end
  begin
     id 6 
     name rhipjoint
     direction -0.554414 -0.743062 0.374812   
     length 2.4371  
     axis 0 0 0  XYZ 
  end
  begin
     id 7 
     name rfemur
     direction -0.34202 -0.939693 0   
     length 7.47254   
     axis 0 0 -20   XYZ
    dof rx ry rz
    limits (-160.0 20.0)
           (-70.0 70.0)
           (-70.0 60.0)
  end
  begin
     id 8 
     name rtibia
     direction -0.34202 -0.939693 0   
     length 7.65855   
     axis 0 0 -20   XYZ
    dof rx
    limits (-10.0 170.0)
 end
 begin
     id 9 
     name rfoot
     direction -0.133779 -0.367555 0.92033   
     length 2.43006  
     axis -90 -7.62852e-016 -20   XYZ
    dof rx rz
    limits (-45.0 90.0)
           (-20.0 70.0)
  end
  begin
     id 10 
     name rtoes
     direction -1.53563e-011 -4.21889e-011 1   
     length 1.19625   
     axis -90 -7.62852e-016 -20   XYZ
    dof rx
    limits (-90.0 20.0)
  end
  begin
     id 11 
     name lowerback
     direction 0.0249066 0.998043 -0.0573585   
     length 2.08485   
     axis 0 0 0   XYZ
    dof rx ry rz
    limits (-20.0 45.0)
           (-30.0 30.0)
           (-30.0 30.0)
  end
  begin
     id 12 
     name upperback
     direction 0.0237884 0.999673 0.00943178   
     length 2.08515   
     axis 0 0 0   XYZ
    dof rx ry rz
    limits (-20.0 45.0)
           (-30.0 30.0)
           (-30.0 30.0)
  end
  begin
     id 13 
     name thorax
     direction 0.0106671 0.999301 0.0358174   
     length 2.09037   
     axis 0 0 0   XYZ
    dof rx ry rz
    limits (-20.0 45.0)
           (-30.0 30.0)
           (-30.0 30.0)
  end
  begin
     id 14 
     name lowerneck
     direction -0.0580016 0.987052 0.149546   
     length 1.84454   
     axis 0 0 0   XYZ
    dof rx ry rz
    limits (-20.0 45.0)
           (-30.0 30.0)
           (-30.0 30.0)
  end
  begin
     id 15 
     name upperneck
     direction 0.079456 0.981963 -0.171567   
     length 1.88141   
     axis 0 0 0   XYZ
    dof rx ry rz
    limits (-20.0 45.0)
           (-30.0 30.0)
           (-30.0 30.0)
  end
  begin
     id 16
     name head
     direction 0.0262167 0.9967 -0.0768276  
     length 1.89541  
     axis 0 0 0   XYZ
    dof rx ry rz
    limits (-20.0 45.0)
           (-30.0 30.0)
           (-30.0 30.0)
  end
  begin
     id 17 
     name lclavicle
     direction 0.946135 0.322134 -0.0325326  
     length 3.949  
     axis 0 0 0   XYZ
    dof ry rz
    limits (-20.0 10.0)
           (0.0 20.0)
  end
  begin
     id 18 
     name lhumerus
     direction 1 -4.48964e-011 1.94005e-028   
     length 5.10995   
     axis 180 -30 -90   XYZ
    dof rx ry rz
    limits (-60.0 90.0)
           (-90.0 90.0)
           (-90.0 90.0)
  end
  begin
     id 19
     name lradius
     direction 1 -4.48976e-011 2.87852e-027   
     length 3.21207   
     axis 180 -30 -90   XYZ
    dof rx
    limits (-10.0 170.0)
  end
  begin
     id 20
     name lwrist
     direction 1 -4.48963e-011 1.9975e-027   
     length 1.60604   
     axis 2.96054e-016 90 90   XYZ
    dof ry
    limits (-180.0 0.0)
 end
  begin
     id 21 
     name lhand
     direction 1 -4.48919e-011 4.00227e-027   
     length 0.63349   
     axis -2.5488e-015 90 90   XYZ
    dof rx rz
    limits (-90.0 90.0)
           (-45.0 45.0)
  end
  begin
     id 22 
     name lfingers
     direction 1 -4.49037e-011 7.9652e-027   
     length 0.510736   
     axis -5.0975e-015 90 90   XYZ
    dof rx
    limits (0.0 90.0)
  end
  begin
     id 23
     name lthumb
     direction 0.707107 -6.34922e-011 0.707107   
     length 0.733318   
     axis -90 45 -4.48553e-014   XYZ
    dof rx rz
    limits (-45.0 45.0)
           (-45.0 45.0)
  end
  begin
     id 24 
     name rclavicle
     direction -0.940085 0.328911 -0.0897654   
     length 3.93848  
     axis 0 0 0   XYZ 
    dof ry rz
    limits (-10.0 20.0)
           (-20.0 0.0)
  end
  begin
     id 25 
     name rhumerus
     direction -1 -4.48958e-011 3.02044e-027  
     length 5.25109   
     axis 180 30 90   XYZ
    dof rx ry rz
    limits (-90.0 60.0)
           (-90.0 90.0)
           (-90.0 90.0)
  end
  begin
     id 26 
     name rradius
     direction -1 -4.4897e-011 9.78352e-028   
     length 3.28364   
     axis 180 30 90   XYZ
    dof rx
    limits (-10.0 170.0)
  end
  begin
     id 27 
     name rwrist
     direction -1 -4.48943e-011 1.99918e-027   
     length 1.64182   
     axis 2.96054e-016 -90 -90   XYZ
    dof ry
    limits (-180.0 0.0)
  end
  begin
     id 28
     name rhand
     direction -1 -4.49024e-011 3.98478e-027   
     length 0.599745   
     axis -2.5488e-015 -90 -90   XYZ
    dof rx rz
    limits (-90.0 90.0)
           (-45.0 45.0)
  end
  begin
     id 29
     name rfingers
     direction -1 -4.48914e-011 8.00621e-027   
     length 0.48353   
     axis -5.0975e-015 -90 -90   XYZ
    dof rx
    limits (0.0 90.0)
  end
  begin
     id 30
     name rthumb
     direction -0.707107 -6.34992e-011 0.707107   
     length 0.694255   
     axis -90 -45 4.48553e-014   XYZ
    dof rx rz
    limits (-45.0 45.0)
           (-45.0 45.0)
  end
:hierarchy
  begin
    root lhipjoint rhipjoint lowerback
    lhipjoint lfemur
    lfemur ltibia
    ltibia lfoot
    lfoot ltoes
    rhipjoint rfemur
    rfemur rtibia
    rtibia rfoot
    rfoot rtoes
    lowerback upperback
    upperback thorax
    thorax lowerneck lclavicle rclavicle
    lowerneck upperneck
    upperneck head
    lclavicle lhumerus
    lhumerus lradius
    lradius lwrist
    lwrist lhand lthumb
    lhand lfingers
    rclavicle rhumerus
    rhumerus rradius
    rradius rwrist
    rwrist rhand rthumb
    rhand rfingers
  end

#!OML:ASF E:\CV Data\Top Level 1\Subject 1\Session 1\player.ASF
:FULLY-SPECIFIED
:DEGREES
413
root 4.05694 15.4613 2.96553 17.0538 8.09991 -2.18915
lowerback 24.7216 6.4135 15.3491
upperback 0.678111 13.5301 6.68271
thorax -11.1501 5.59642 -5.20047
lowerneck -15.0744 -10.8805 -14.0517
upperneck -6.4842 -12.1306 7.67251
head 1.65623 -5.64006 3.72672
rclavicle -3.97569e-014 -3.81667e-014
rhumerus 50.48 22.4385 -23.8542
rradius 37.6266
rwrist -19.9343
rhand -19.1042 -16.6711
rfingers 7.12502
rthumb 7.2046 -46.5284
lclavicle -3.97569e-014 -3.81667e-014
lhumerus -40.2169 -3.18372 90.2815
lradius 52.6369
lwrist -25.573
lhand -20.7099 -0.309621
lfingers 7.12502
lthumb 5.65444 29.5949
rfemur -3.75121 -9.88816 24.3274
rtibia 60.9864
rfoot -3.12381 -24.7399
rtoes 15.186
lfemur -62.7638 -3.23228 -33.9043
ltibia 39.0793
lfoot 9.61403 -17.4052
ltoes 15.6831
414
root 3.97824 15.5263 3.0601 17.5115 9.01402 -2.16032
lowerback 24.5809 6.34911 15.5602
upperback 0.666418 13.4618 6.56758
thorax -11.0202 5.56491 -5.39073
lowerneck -14.4274 -11.3515 -14.1037
upperneck -6.76792 -12.8495 8.31116
head 1.60197 -5.99852 3.89027
rclavicle -8.74653e-014 -9.54166e-014
rhumerus 52.5297 24.8217 -30.7546
rradius 37.5218
rwrist -28.2908
rhand -22.1484 -17.0945
rfingers 7.12502
rthumb 4.26545 -47.0315
lclavicle -8.74653e-014 -9.54166e-014
lhumerus -41.2814 -4.23488 90.2761
lradius 54.8686
lwrist -26.8796
lhand -19.9876 -0.8303
lfingers 7.12502
lthumb 6.35181 29.0545
rfemur -3.73316 -10.2921 24.6756
rtibia 59.0879
rfoot -2.75451 -23.9895
rtoes 14.3043
lfemur -62.6406 -3.49756 -33.7613
ltibia 38.8291
lfoot 9.43722 -17.933
ltoes 16.1308
415
root 3.89244 15.5563 3.15341 17.9403 9.84367 -2.1252
lowerback 24.4549 6.45497 15.6474
upperback 0.688131 13.5754 6.44713
thorax -10.852 5.62921 -5.56981
lowerneck -13.7067 -11.9425 -14.1844
upperneck -7.29944 -13.7226 9.16885
head 1.50383 -6.43147 4.11854
rclavicle -1.54257e-013 -1.90833e-014
rhumerus 52.7532 26.1689 -40.175
rradius 37.0309
rwrist -35.784
rhand -24.2815 -17.5365
rfingers 7.12502
rthumb 2.20552 -47.5048
lclavicle -1.54257e-013 -1.90833e-014
lhumerus -41.9846 -5.63319 90.4366
lradius 56.7982
lwrist -25.9729
lhand -19.4146 -1.21353
lfingers 7.12502
lthumb 6.90496 28.6539
rfemur -3.57726 -10.5701 24.996
rtibia 57.1428
rfoot -2.38059 -23.0789
rtoes 13.3375
lfemur -62.7025 -3.68419 -33.6413
ltibia 38.7569
lfoot 9.28002 -18.4566
ltoes 16.5744
416
root 3.80846 15.6163 3.25267 18.3243 10.5808 -2.12248
lowerback 24.3551 6.74788 15.6207
upperback 0.764946 13.902 6.38005
thorax -10.6339 5.80675 -5.68386
lowerneck -12.8238 -12.6196 -14.3722
upperneck -8.21952 -14.6954 10.2438
head 1.31212 -6.91498 4.43692
rclavicle 8.90555e-014 5.40694e-014
rhumerus 51.3755 26.5198 -51.2265
rradius 35.9873
rwrist -39.191
rhand -25.1899 -18.195
rfingers 7.12502
rthumb 1.32818 -48.1706
lclavicle 8.90555e-014 5.40694e-014
lhumerus -42.3358 -7.3187 90.8398
lradius 58.4837
lwrist -23.0344
lhand -19.0361 -1.56832
lfingers 7.12502
lthumb 7.27034 28.2868
rfemur -3.26447 -10.7202 25.2837
rtibia 55.0047
rfoot -1.85684 -22.086
rtoes 12.849
lfemur -62.6539 -3.73836 -33.4804
ltibia 38.7143
lfoot 8.98566 -18.9425
ltoes 16.9974
417
root 3.72482 15.6742 3.35265 18.6564 11.2551 -2.1739
lowerback 24.271 7.20664 15.4939
upperback 0.902999 14.4221 6.41593
thorax -10.3705 6.08901 -5.6773
lowerneck -11.7325 -13.3208 -14.6937
upperneck -9.57065 -15.6805 11.4823
head 1.00243 -7.41212 4.84893
rclavicle -1.74931e-013 -6.04305e-014
rhumerus 49.0994 26.2611 -62.2481
rradius 34.6691
rwrist -39.0569
rhand -26.019 -18.5449
rfingers 7.12502
rthumb 0.52741 -48.524
lclavicle -1.74931e-013 -6.04305e-014
lhumerus -42.4014 -9.11666 91.4656
lradius 60.0327
lwrist -18.5606
lhand -18.7319 -2.00465
lfingers 7.12502
lthumb 7.56396 27.8401
rfemur -2.83487 -10.777 25.5785
rtibia 52.8353
rfoot -1.24753 -21.0781
rtoes 13.1532
lfemur -62.6233 -3.71795 -33.2652
ltibia 38.7525
lfoot 8.63948 -19.3831
ltoes 17.3474
418
root 3.64381 15.7304 3.45295 18.937 11.9028 -2.27972
lowerback 24.1912 7.79258 15.2863
upperback 1.09136 15.094 6.57549
thorax -10.0849 6.45325 -5.52687
lowerneck -10.4559 -13.9887 -15.1493
upperneck -11.2687 -16.5985 12.8184
head 0.593412 -7.88814 5.34379
rclavicle -3.02153e-014 7.63333e-014
rhumerus 46.4901 25.7717 -72.1389
rradius 33.2134
rwrist -36.5753
rhand -27.1953 -17.9542
rfingers 7.12502
rthumb -0.608761 -47.9331
lclavicle -3.02153e-014 7.63333e-014
lhumerus -42.2834 -10.8299 92.2256
lradius 61.556
lwrist -13.2812
lhand -18.3008 -2.55152
lfingers 7.12502
lthumb 7.98003 27.2778
rfemur -2.28069 -10.7906 25.8789
rtibia 50.627
rfoot -0.478482 -20.0145
rtoes 14.1484
lfemur -62.5329 -3.67713 -32.9818
ltibia 38.7201
lfoot 8.32155 -19.7831
ltoes 17.5798
419
root 3.56668 15.786 3.55206 19.1768 12.5799 -2.4188
lowerback 24.1012 8.44317 15.0277
upperback 1.3097 15.8451 6.84572
thorax -9.80365 6.8601 -5.24605
lowerneck -9.06947 -14.5812 -15.6524
upperneck -13.1591 -17.4035 14.1193
head 0.116923 -8.32213 5.87068
rclavicle -5.56597e-014 -2.54444e-014
rhumerus 43.9229 25.4238 -80.3092
rradius 31.6446
rwrist -32.8845
rhand -28.7822 -16.3439
rfingers 7.12502
rthumb -2.14133 -46.3129
lclavicle -5.56597e-014 -2.54444e-014
lhumerus -42.0841 -12.2952 92.9946
lradius 63.1423
lwrist -7.96887
lhand -17.5455 -3.10255
lfingers 7.12502
lthumb 8.70892 26.6978
rfemur -1.66392 -10.8268 26.1788
rtibia 48.5113
rfoot 0.406226 -18.8566
rtoes 15.4488
lfemur -62.4066 -3.68947 -32.6318
ltibia 38.6782
lfoot 7.99511 -20.123
ltoes 17.6682
